<svg width="900" height="600" viewBox="0 0 900 600" fill="none" xmlns="http://www.w3.org/2000/svg">
<g id="Frame 1" clip-path="url(#clip0_1_4)">
<rect width="900" height="600" fill="white"/>
<g id="background-waves 1" clip-path="url(#clip1_1_4)">
<path id="Vector" d="M900 0H0V600H900V0Z" fill="#EEECF3"/>
<path id="Vector_2" d="M0 376.872C11.4379 371.462 19.513 357.089 50.2496 348.158C80.9862 339.227 130.136 340.357 162.952 348.158C195.769 355.958 231.974 369.686 246.941 376.872C261.907 384.057 293.233 389.063 338.952 391.913C384.671 394.763 424.235 388.01 435.606 385.955C446.977 383.899 485.257 373.377 504.456 364.776C523.654 356.175 567.447 323.672 597.138 316.767C626.829 309.862 669.279 313.299 699.247 327.829C729.215 342.359 768.465 376.319 808.22 385.955C847.976 395.591 878.5 397.138 900 385.955C921.5 374.772 908.362 600.239 900 601C891.638 601.761 886.896 601 878.5 601C870.104 601 813.103 601 771.2 601C729.297 601 692.943 601 642.8 601C592.657 601 564.343 601 514.2 601C464.057 601 435.943 601 385.8 601C335.657 601 307.343 601 257.2 601C207.057 601 170.703 601 128.8 601C86.8967 601 29.8963 601 21.5 601C13.1037 601 8.36402 601.735 0 601C-8.36402 600.265 -11.4379 382.281 0 376.872Z" fill="#B169FA"/>
<path id="Vector_3" d="M0 462.153L35.2647 453.724C65.8275 447.455 120.15 432.234 161.434 428.096C202.719 423.958 257.2 420.923 307.979 418.068C358.757 415.213 434.639 409.839 480.091 409.839C525.543 409.839 607.184 410.171 642.8 412.377C678.416 414.583 744.718 425.105 776.279 430.297C807.84 435.49 833.965 440.2 851.54 444.594C869.114 448.988 883.81 452.806 900 460.375V601H878.5C857 601 814 601 771.2 601C728.3 601 685.7 601 642.8 601C600 601 557 601 514.2 601C471.3 601 428.7 601 385.8 601C343 601 300 601 257.2 601C214.3 601 171.7 601 128.8 601C86 601 43 601 21.5 601H0V462.153Z" fill="#9752E9"/>
<path id="Vector_4" d="M0 476C9.19471 479.365 -9.08163 478.246 21.5 488.898C52.0816 499.55 102.152 506.06 143.224 506.06C184.297 506.06 253.548 485.33 289.307 478.82C325.066 472.31 397.737 459.629 432.761 459.629C467.785 459.629 529.113 462.287 565.18 469.224C601.247 476.161 634.604 485.334 666.414 487.456C698.224 489.578 736.845 489.583 771.2 486.168C805.555 482.753 845.509 478.597 861.826 475.612C878.143 472.627 887.621 463.951 900 456.148V601C900 601 900 601 878.5 601C857 601 814.05 601 771.2 601C728.35 601 685.65 601 642.8 601C599.95 601 557.05 601 514.2 601C471.35 601 428.65 601 385.8 601C342.95 601 300.05 601 257.2 601C214.35 601 171.65 601 128.8 601C85.95 601 43 601 21.5 601C-4.76837e-07 601 8.27476 602.423 0 601C-8.27476 599.577 -9.19471 472.635 0 476Z" fill="#7B3CD8"/>
<path id="Vector_5" d="M-0.666737 520.084C-0.666737 520.084 31.8893 534.604 48.7934 539.866C65.6975 545.127 151.071 561.676 173.557 559.019C196.043 556.361 302.892 540.736 331.438 530.3C359.983 519.865 419.387 509.362 447.966 509.362C476.545 509.362 542.256 510.265 574.838 516.436C607.419 522.607 648.836 540.998 679.695 548.109C710.553 555.22 767.695 556.673 788.433 555.22C809.17 553.767 856.814 544.503 870.082 536.338C883.351 528.173 900.374 516.436 900.374 516.436V600.207C900.374 600.207 899.333 602.066 877.833 602.066C856.333 602.066 813.383 602.066 770.533 602.066C727.683 602.066 684.983 602.066 642.133 602.066C599.283 602.066 556.383 602.066 513.533 602.066C470.683 602.066 427.983 602.066 385.133 602.066C342.283 602.066 299.383 602.066 256.533 602.066C213.683 602.066 170.983 602.066 128.133 602.066C85.2833 602.066 42.3333 602.066 20.8333 602.066C-0.666737 602.066 -0.666737 602.066 -0.666737 602.066V520.084Z" fill="#5D24C7"/>
</g>
</g>
<defs>
<clipPath id="clip0_1_4">
<rect width="900" height="600" fill="white"/>
</clipPath>
<clipPath id="clip1_1_4">
<rect width="900" height="600" fill="white"/>
</clipPath>
</defs>
</svg>
