<svg id="visual" viewBox="0 0 900 600" width="900" height="600" xmlns="http://www.w3.org/2000/svg" xmlns:xlink="http://www.w3.org/1999/xlink" version="1.1"><rect x="0" y="0" width="900" height="600" fill="#eeecf3">
    </rect>
        <path d="M0 298L21.5 303.2C43 308.3 86 318.7 128.8 330C171.7 341.3 214.3 353.7 257.2 348.8C300 344 343 322 385.8 328C428.7 334 471.3 368 514.2 384C557 400 600 398 642.8 390.8C685.7 383.7 728.3 371.3 771.2 363.8C814 356.3 857 353.7 878.5 352.3L900 351L900 601L878.5 601C857 601 814 601 771.2 601C728.3 601 685.7 601 642.8 601C600 601 557 601 514.2 601C471.3 601 428.7 601 385.8 601C343 601 300 601 257.2 601C214.3 601 171.7 601 128.8 601C86 601 43 601 21.5 601L0 601Z" fill="#b169fa"></path>
        <path d="M0 388L21.5 390.7C43 393.3 86 398.7 128.8 405.3C171.7 412 214.3 420 257.2 425.3C300 430.7 343 433.3 385.8 435C428.7 436.7 471.3 437.3 514.2 436C557 434.7 600 431.3 642.8 429.8C685.7 428.3 728.3 428.7 771.2 420.7C814 412.7 857 396.3 878.5 388.2L900 380L900 601L878.5 601C857 601 814 601 771.2 601C728.3 601 685.7 601 642.8 601C600 601 557 601 514.2 601C471.3 601 428.7 601 385.8 601C343 601 300 601 257.2 601C214.3 601 171.7 601 128.8 601C86 601 43 601 21.5 601L0 601Z" fill="#9752e9"></path>
        <path d="M0 476L21.5 468.7C43 461.3 86 446.7 128.8 442C171.7 437.3 214.3 442.7 257.2 449.3C300 456 343 464 385.8 470.2C428.7 476.3 471.3 480.7 514.2 485.2C557 489.7 600 494.3 642.8 488.2C685.7 482 728.3 465 771.2 463.5C814 462 857 476 878.5 483L900 490L900 601L878.5 601C857 601 814 601 771.2 601C728.3 601 685.7 601 642.8 601C600 601 557 601 514.2 601C471.3 601 428.7 601 385.8 601C343 601 300 601 257.2 601C214.3 601 171.7 601 128.8 601C86 601 43 601 21.5 601L0 601Z" fill="#7b3cd8"></path>
        <path d="M0 548L21.5 545.3C43 542.7 86 537.3 128.8 529.3C171.7 521.3 214.3 510.7 257.2 513.7C300 516.7 343 533.3 385.8 538.8C428.7 544.3 471.3 538.7 514.2 537.5C557 536.3 600 539.7 642.8 532.8C685.7 526 728.3 509 771.2 503.8C814 498.7 857 505.3 878.5 508.7L900 512L900 601L878.5 601C857 601 814 601 771.2 601C728.3 601 685.7 601 642.8 601C600 601 557 601 514.2 601C471.3 601 428.7 601 385.8 601C343 601 300 601 257.2 601C214.3 601 171.7 601 128.8 601C86 601 43 601 21.5 601L0 601Z" fill="#5d24c7"></path></svg>